PathFileType	4	(X/Y/Z)	D:\Share\Shared_Data\Ergonomics\Sit To Stand Pertubation\S3\Perturbed.trc
DataRate	CameraRate	NumFrames	NumMarkers	Units	OrigDataRate	OrigDataStartFrame	OrigNumFrames	
100	100	14	18	m	100	8491	221
Frame#	Time	R_ASIS			R_Pelvis			V_Sacral			L_Pelvis			L_ASIS			Clavical			R_Acromium			L_Acromium			Sternum			Torso			R_Thigh_Med			R_Thigh_Lat			R_Thigh			R_Shank_Med			R_Shank_Lat			R_Shank			R_Heel			R_Toe			
		X1	Y1	Z1	X2	Y2	Z2	X3	Y3	Z3	X4	Y4	Z4	X5	Y5	Z5	X6	Y6	Z6	X7	Y7	Z7	X8	Y8	Z8	X9	Y9	Z9	X10	Y10	Z10	X11	Y11	Z11	X12	Y12	Z12	X13	Y13	Z13	X14	Y14	Z14	X15	Y15	Z15	X16	Y16	Z16	X17	Y17	Z17	X18	Y18	Z18	

8491	84.9	0.051893791	0.61508899	0.1530316	-0.055621296	0.65937671	0.20643559	-0.15151018	0.70232019	0.016232424	-0.045247658	0.67476685	-0.19512444	0.056452305	0.62004425	-0.14409703	0.2697381	0.9292406	0.0035084867	0.29364963	1.0000554	0.16324184	0.28081998	1.0086902	-0.13961192	0.2405946	0.84814429	0.0049253564	0.26020905	0.91571338	-0.058126472	0.33448782	0.47529504	0.074790596	0.32056982	0.45173077	0.1873528	0.15972412	0.58680688	0.10136845	0.29591559	0.10582917	0.096707756	0.28183673	0.095159401	0.17733401	0.28260562	0.27239127	0.19795522	0.22366747	0.056072758	0.1388857	0.44049362	0.056652012	0.11893878
8492	84.91	0.057262539	0.61497992	0.15303958	-0.049426701	0.66114612	0.20629613	-0.14532832	0.70554517	0.016279984	-0.039418823	0.67671832	-0.19544243	0.060856358	0.61969165	-0.14415292	0.27864139	0.92666901	0.0037173183	0.30469693	0.99755695	0.1622406	0.29260013	1.0068382	-0.13806171	0.24851913	0.84565839	0.0050258269	0.26938043	0.91358649	-0.057892021	0.33691965	0.47613327	0.075818192	0.32288431	0.45125531	0.18765765	0.1627592	0.58772656	0.10158526	0.29584534	0.10569618	0.096574066	0.28199411	0.094872993	0.17723763	0.28403415	0.27212433	0.19806494	0.22370741	0.055960445	0.13881111	0.44066373	0.056539684	0.1189996
8493	84.92	0.062754208	0.61513824	0.15301663	-0.043089294	0.66305133	0.20627386	-0.13911752	0.70867242	0.016335896	-0.033474682	0.67869019	-0.19572717	0.065342789	0.61965314	-0.14402698	0.2872561	0.92440796	0.0039418881	0.31533038	0.99541492	0.16119887	0.30407608	1.0052629	-0.13639778	0.25620401	0.84348499	0.0051361213	0.27857516	0.9117583	-0.057526779	0.33950687	0.4764635	0.07643042	0.32546082	0.45071475	0.18783173	0.16614191	0.58863904	0.10183824	0.2958038	0.10554323	0.0964291	0.28218301	0.094540039	0.17715472	0.28567288	0.27184088	0.19811539	0.2237612	0.055855278	0.13873256	0.44086014	0.056401505	0.11905695
8494	84.93	0.068287209	0.61557086	0.1529753	-0.036706345	0.66509589	0.20636433	-0.1329239	0.71170978	0.016391491	-0.027442657	0.68064771	-0.19597963	0.069926712	0.61990381	-0.14372678	0.29554459	0.92250043	0.0041791654	0.32545139	0.99369818	0.16015219	0.31514664	1.0040148	-0.13465256	0.26363043	0.84166864	0.0052528734	0.28768024	0.91026178	-0.057057102	0.34223428	0.47624307	0.076572044	0.32827701	0.45011694	0.18784099	0.16984714	0.58953467	0.10208487	0.29579922	0.10537988	0.096266266	0.28236917	0.094233147	0.17707068	0.28748245	0.27155359	0.19807748	0.22382466	0.055760246	0.13865147	0.44107654	0.056243057	0.11910793
8495	84.94	0.073786911	0.61628168	0.15293359	-0.030376383	0.66727039	0.20654271	-0.12678897	0.71467535	0.016436577	-0.021349503	0.68256555	-0.19621039	0.074620056	0.62040002	-0.14328137	0.30347772	0.92099182	0.004425849	0.33497375	0.99247253	0.15914246	0.32572684	1.0031533	-0.13286502	0.27078293	0.84025702	0.0053702292	0.29657019	0.90913202	-0.056517849	0.345104	0.4754884	0.076212982	0.33130624	0.44947366	0.18766342	0.17383923	0.59041107	0.10228857	0.29585446	0.10521341	0.096078873	0.28252112	0.094012985	0.17697302	0.28940869	0.27127536	0.19792679	0.22389331	0.055677235	0.1385697	0.44130466	0.056071934	0.11915044
8496	84.95	0.079199234	0.61727368	0.15291493	-0.024187609	0.66956158	0.20677846	-0.12074895	0.71759204	0.016454071	-0.015221373	0.68443365	-0.19643694	0.079426712	0.62109882	-0.14273369	0.31103479	0.91992999	0.0046789508	0.3438324	0.99179486	0.15821217	0.3357493	1.0027406	-0.13108197	0.27765396	0.83930121	0.0054816222	0.30512952	0.90840619	-0.055942497	0.34811609	0.47423895	0.075348366	0.33451981	0.44879855	0.18729202	0.17807854	0.59127332	0.10242561	0.29600473	0.10504722	0.095862068	0.28262402	0.093907829	0.17685027	0.29138904	0.27101587	0.19764758	0.22396254	0.055606804	0.13848825	0.44153632	0.055895554	0.11918335
8497	84.96	0.084493614	0.61854761	0.15294026	-0.018207672	0.67195764	0.20704147	-0.11483374	0.72048438	0.016418671	-0.0090850153	0.68626111	-0.19667961	0.08434185	0.62196997	-0.14213354	0.31820343	0.91936334	0.0049359293	0.35198801	0.99170807	0.15739995	0.34516089	1.0028369	-0.12936325	0.28424686	0.83885553	0.0055815067	0.31326395	0.90812311	-0.055361115	0.35125687	0.47255157	0.074012787	0.33788748	0.44810605	0.18673581	0.18252962	0.59213397	0.10248649	0.29627338	0.104884	0.095614914	0.28268433	0.093909172	0.17668651	0.29336343	0.27077991	0.19723755	0.22402815	0.055548851	0.13840759	0.44176505	0.055719532	0.11920708
8498	84.97	0.089659111	0.62010291	0.1530188	-0.012478318	0.67445178	0.20730455	-0.10906465	0.7233811	0.016304764	-0.0029688787	0.68807715	-0.19695615	0.089353683	0.62300146	-0.14153094	0.32497922	0.91933942	0.0051944857	0.35942789	0.99223834	0.15673891	0.35392239	1.0034962	-0.1277832	0.29057941	0.83897723	0.0056676736	0.3208999	0.9083222	-0.054802437	0.35451059	0.47053613	0.072304337	0.34137701	0.44741019	0.18601817	0.18716566	0.59301385	0.10247235	0.29665234	0.10472911	0.095343918	0.28272278	0.093983078	0.17646895	0.29528531	0.27057019	0.19671021	0.22408682	0.055503128	0.13832851	0.44198599	0.055547352	0.11922364
8499	84.98	0.094699158	0.62194147	0.15314426	-0.007015388	0.67704633	0.20754384	-0.10345212	0.72632086	0.016097925	0.0030974572	0.68992822	-0.19727667	0.094445732	0.6242002	-0.14096989	0.33136456	0.91990283	0.0054523315	0.3661644	0.99339606	0.15625528	0.36201151	1.0047662	-0.12642528	0.29668542	0.83972626	0.0057438073	0.32799313	0.90904242	-0.054288239	0.35787399	0.46838565	0.070397934	0.34495181	0.44672351	0.18517398	0.19196407	0.59393768	0.10239085	0.29710544	0.10459088	0.095062965	0.28275986	0.09409079	0.17620515	0.29712906	0.27039038	0.19609296	0.22413675	0.055469185	0.13825253	0.4421955	0.055381248	0.1192359
8500	84.99	0.099625603	0.62407196	0.15329671	-0.0018123847	0.67975714	0.20773935	-0.097995308	0.72935455	0.015801225	0.0090849457	0.69187384	-0.19764047	0.099598694	0.62559045	-0.14048329	0.33736707	0.92109467	0.0057070966	0.37222989	0.99517957	0.15596625	0.36942703	1.0066877	-0.12537306	0.30260989	0.8411651	0.0058211942	0.33453632	0.91032312	-0.053826672	0.36134515	0.46632593	0.068504044	0.34856836	0.44605466	0.18424586	0.19689812	0.59492761	0.10225458	0.29758997	0.10447623	0.094787193	0.28280704	0.09420414	0.17592369	0.29888943	0.27024478	0.1954223	0.22417767	0.055446045	0.13818121	0.44239041	0.055223171	0.11924647
8501	85	0.104452	0.62651086	0.15344682	0.0031551919	0.68261609	0.20787485	-0.092683823	0.73254382	0.015433706	0.014966703	0.69398065	-0.19803484	0.10479082	0.62721033	-0.1400898	0.34299738	0.92295117	0.0059567037	0.37766888	0.99758203	0.15587903	0.37619455	1.0092937	-0.12469594	0.30840085	0.84335199	0.0059200964	0.3405484	0.9122038	-0.053416431	0.36489844	0.46451941	0.066788475	0.35217465	0.44540735	0.18328006	0.20193343	0.59599762	0.10207975	0.29807486	0.10438704	0.09452774	0.28286597	0.09431205	0.17565388	0.3005759	0.27013562	0.19473854	0.22421014	0.055432125	0.13811559	0.44256729	0.055075428	0.1192569
8502	85.01	0.10918779	0.62927924	0.15355933	0.0079253697	0.68566919	0.20793701	-0.087501068	0.73595508	0.01502417	0.020719429	0.69631683	-0.19843608	0.10999715	0.62910693	-0.13979272	0.3482681	0.92550391	0.0062005615	0.38252951	1.0005986	0.15599182	0.38235995	1.0126035	-0.12442979	0.31410141	0.84632489	0.0060714622	0.34605823	0.91472302	-0.053053204	0.36847821	0.46302805	0.065333328	0.35571228	0.44478265	0.18232266	0.20703049	0.5971557	0.10188349	0.29854132	0.10432204	0.094291954	0.28293094	0.094418335	0.17541191	0.30220242	0.27006039	0.1940815	0.22423492	0.055425209	0.13805597	0.44272229	0.054941273	0.11926773
8503	85.02	0.11383372	0.63239697	0.15359709	0.01254397	0.68896997	0.20791794	-0.082428818	0.73965149	0.014603118	0.026324732	0.69894714	-0.19881451	0.11518808	0.63133289	-0.13958144	0.35319324	0.92877783	0.0064405322	0.38685864	1.0042325	0.15629478	0.38796448	1.0166166	-0.12454415	0.31973788	0.85008459	0.0063161297	0.35109686	0.91791882	-0.05272892	0.37200916	0.46184543	0.064157654	0.35912158	0.44418292	0.18141591	0.21214832	0.59840729	0.10168134	0.29897614	0.10428014	0.094085602	0.28299384	0.094527626	0.17520395	0.30377689	0.27001099	0.19348718	0.2242525	0.055422684	0.13800323	0.44285104	0.054825272	0.11927869
8504	85.03	0.11837963	0.63587708	0.15352592	0.017058456	0.69257233	0.20782053	-0.077451363	0.74368555	0.014195008	0.031770323	0.70192816	-0.19914211	0.12032889	0.63394226	-0.13943491	0.35778912	0.93278943	0.0066806211	0.39070084	1.0084968	0.15676952	0.39303537	1.0213169	-0.12491119	0.32530688	0.85459937	0.0066946659	0.35569391	0.92182428	-0.052431389	0.37541095	0.46093658	0.063250652	0.3623447	0.44361414	0.18059566	0.21724611	0.59975897	0.10148703	0.29936923	0.10426096	0.09391375	0.28304791	0.094634651	0.17503287	0.30529529	0.26997638	0.19298463	0.22426376	0.055422321	0.13796072	0.44294867	0.054732758	0.11928959
